<svg width="115" height="90" viewBox="0 0 115 90" fill="none" xmlns="http://www.w3.org/2000/svg">
<path d="M49.3122 41.2786C52.3313 33.1342 55.3667 24.9371 58.4507 16.7022C59.5489 13.7724 60.5049 11.3438 61.3192 9.36813C62.135 7.39217 62.9655 5.78568 63.8122 4.52995C64.6586 3.25688 65.5682 2.31968 66.5246 1.68332C67.4807 1.04766 68.6727 0.594657 70.1139 0.327081C71.5565 0.0425227 73.2966 -0.0406587 75.3194 0.0265818C77.3418 0.109766 79.8027 0.226921 82.6726 0.377345C84.4432 0.377345 85.8072 0.779369 86.7792 1.5658C87.7355 2.35293 88.5034 3.54144 89.0995 5.11639C93.3009 16.7022 97.5182 28.1709 101.767 39.5567C102.947 42.7197 116.461 75.1941 114.849 78.1066C114.318 79.0777 112.694 79.58 109.976 79.58C108.049 79.6632 106.106 79.6801 104.147 79.6302C102.173 79.5969 100.23 79.6129 98.3026 79.6971C96.2223 79.8476 94.6435 79.4126 93.5362 78.3911C92.352 77.3004 90.8407 74.2541 90.1497 72.5915C89.1476 70.2301 87.8764 66.8812 86.3245 62.5449C82.9786 53.2855 79.534 44.0746 76.2599 34.7847C76.119 34.9358 75.8522 35.4037 75.492 36.1915C72.0338 43.4265 69.3146 51.7684 66.6343 59.2976C64.9413 64.0686 63.3111 68.8912 61.7586 73.7803C61.6878 73.9779 61.6151 74.1695 61.5402 74.3574C62.9788 78.2307 67.4466 85.9041 59.9656 85.9041C59.7452 86.0552 59.5252 86.1058 59.3048 86.0215C59.0844 85.9377 58.8956 85.9041 58.7541 85.9041C54.3788 85.9879 51.0111 85.9377 48.6343 85.7862C46.2743 85.6181 44.3696 85.0133 42.9216 83.9374C41.7393 83.0727 40.7041 81.7708 39.8243 80.0226C39.7831 79.954 39.7461 79.885 39.7123 79.8171C39.1129 78.6185 38.5181 77.3361 38.0365 75.9992C36.6131 72.0414 35.056 67.798 33.383 63.2617C33.237 63.5043 33.0426 63.8811 32.8079 64.3916C32.4325 65.1798 32.0242 66.1166 31.5851 67.171C31.1457 68.2427 30.6764 69.314 30.2062 70.42C29.72 71.5246 29.3748 72.4286 29.1554 73.1492C27.5434 77.5208 25.5855 85.7695 22.6398 88.3978C21.4958 89.4189 19.8657 89.8539 17.7173 89.7038C15.7267 89.6196 13.7201 89.6036 11.6817 89.6366C9.65923 89.6868 7.65269 89.6698 5.66202 89.5863C4.21754 89.5863 3.07193 89.4536 2.22556 89.1919L2.22461 89.1915C1.42724 88.9448 0.895645 88.5846 0.629531 88.1133C-1.11741 85.0562 14.3367 48.7229 15.7672 44.9033C16.8645 41.9725 17.8205 39.5445 18.6364 37.5689C19.4513 35.5936 20.2824 33.9871 21.1291 32.7307C21.9758 31.458 22.8842 30.5197 23.8412 29.8844C24.7979 29.2477 25.9886 28.7958 27.4311 28.5282C28.8737 28.2433 30.6135 28.1591 32.6359 28.2263C34.6587 28.3098 37.1193 28.4277 39.9885 28.5784C41.7591 28.5784 43.1241 28.9802 44.0951 29.7669C45.0515 30.5537 45.8206 31.7426 46.4164 33.3161C47.3806 35.9766 48.3458 38.6299 49.3122 41.2786Z" fill="#F8BD01"/>
</svg>
